<svg version="1.1" viewBox="0.0 0.0 755.9055118110236 755.9055118110236" fill="none" stroke="none" stroke-linecap="square" stroke-miterlimit="10" xmlns:xlink="http://www.w3.org/1999/xlink" xmlns="http://www.w3.org/2000/svg"><clipPath id="g11aaaa25996_0_0.0"><path d="m0 0l755.9055 0l0 755.9055l-755.9055 0l0 -755.9055z" clip-rule="nonzero"/></clipPath><g clip-path="url(#g11aaaa25996_0_0.0)"><path fill="#212121" d="m0 0l755.9055 0l0 755.9055l-755.9055 0z" fill-rule="evenodd"/><path fill="#000000" fill-opacity="0.0" d="m0 255.13374l755.9055 0l0 245.6378l-755.9055 0z" fill-rule="evenodd"/><path fill="#ffffff" d="m256.234 291.03687q-22.515625 0 -35.53125 12.59375q-11.90625 11.90625 -11.90625 30.828125q0 18.75 11.890625 30.640625q13.0 12.796875 35.546875 12.796875q22.5625 0 35.53125 -12.78125q12.09375 -11.890625 12.09375 -30.65625q0 -18.9375 -12.109375 -30.828125q-12.984375 -12.59375 -35.515625 -12.59375zm0 18.140625q13.375 0 20.609375 7.078125q6.6875 6.6875 6.6875 18.203125q0 11.15625 -6.6875 17.859375q-7.234375 7.078125 -20.609375 7.078125q-13.515625 0 -20.578125 -7.046875q-6.53125 -6.703125 -6.53125 -17.890625q0 -11.546875 6.515625 -18.21875q7.234375 -7.0625 20.59375 -7.0625zm73.421875 -22.15625l0 98.71875l19.953125 0l0 -30.8125l27.53125 0l0 -17.953125l-27.53125 0l0 -39.546875l0.453125 -1.234375q1.59375 -3.53125 0.421875 -5.921875q-1.625 -3.25 -7.84375 -3.25l-12.984375 0zm-103.359375 105.0l0 17.765625l103.90625 0l0 48.3125l19.40625 0l0 -66.078125l-123.3125 0z" fill-rule="nonzero"/><path fill="#ee8434" d="m398.5465 313.45874l0 17.765625l39.84375 0q-1.046875 9.890625 -12.328125 21.515625q-11.90625 12.4375 -37.78125 20.984375l12.96875 16.359375q19.640625 -8.71875 31.734375 -18.734375q11.921875 -10.015625 13.796875 -13.828125q1.234375 2.671875 14.671875 12.015625q13.828125 9.671875 33.796875 15.53125l12.734375 -17.109375q-28.640625 -5.734375 -41.359375 -17.234375q-12.015625 -10.75 -9.375 -19.5l41.46875 0l0 -17.765625l-100.171875 0zm26.609375 -24.421875l0 17.765625l50.234375 0l0 -17.765625l-50.234375 0zm91.15625 -2.015625l0 98.71875l19.953125 0l0 -30.8125l27.53125 0l0 -17.953125l-27.53125 0l0 -39.546875l0.453125 -1.234375q1.59375 -3.53125 0.421875 -5.921875q-1.625 -3.25 -7.84375 -3.25l-12.984375 0zm-103.359375 105.0l0 17.765625l103.90625 0l0 48.3125l19.40625 0l0 -66.078125l-123.3125 0z" fill-rule="nonzero"/></g></svg>