<svg version="1.1" viewBox="0.0 0.0 755.9055118110236 755.9055118110236" fill="none" stroke="none" stroke-linecap="square" stroke-miterlimit="10" xmlns:xlink="http://www.w3.org/1999/xlink" xmlns="http://www.w3.org/2000/svg"><clipPath id="g11aaaa25996_0_0.0"><path d="m0 0l755.9055 0l0 755.9055l-755.9055 0l0 -755.9055z" clip-rule="nonzero"/></clipPath><g clip-path="url(#g11aaaa25996_0_0.0)"><path fill="#212121" d="m0 0l755.9055 0l0 755.9055l-755.9055 0z" fill-rule="evenodd"/><path fill="#000000" fill-opacity="0.0" d="m0 206.6613l755.9055 0l0 342.58264l-755.9055 0z" fill-rule="evenodd"/><path fill="#ffffff" d="m204.07776 254.06755q-32.1875 0 -50.765625 17.999985q-17.015625 17.015625 -17.015625 44.046875q0 26.78125 17.0 43.78125q18.578125 18.28125 50.78125 18.28125q32.234375 0 50.765625 -18.265625q17.28125 -16.984375 17.28125 -43.796875q0 -27.0625 -17.296875 -44.0625q-18.546875 -17.98436 -50.75 -17.98436zm0 25.937485q19.09375 0 29.421875 10.109375q9.5625 9.546875 9.5625 26.0q0 15.9375 -9.5625 25.5q-10.328125 10.109375 -29.421875 10.109375q-19.3125 0 -29.375 -10.078125q-9.34375 -9.5625 -9.34375 -25.53125q0 -16.484375 9.3125 -26.015625q10.328125 -10.09375 29.40625 -10.09375zm104.875 -31.67186l0 141.04686l28.53125 0l0 -44.015625l39.328125 0l0 -25.671875l-39.328125 0l0 -56.484375l0.640625 -1.765625q2.296875 -5.046875 0.609375 -8.468735q-2.328125 -4.640625 -11.21875 -4.640625l-18.5625 0zm-147.65625 149.99998l0 25.40625l148.4375 0l0 69.015625l27.75 0l0 -94.421875l-176.1875 0z" fill-rule="nonzero"/><path fill="#ee8434" d="m407.37463 286.0988l0 25.40625l56.921875 0q-1.484375 14.109375 -17.609375 30.71875q-17.015625 17.765625 -53.984375 29.96875l18.546875 23.390625q28.0625 -12.453125 45.328125 -26.765625q17.0625 -14.296875 19.71875 -19.71875q1.75 3.78125 20.953125 17.140625q19.75 13.796875 48.28125 22.171875l18.21875 -24.453125q-40.9375 -8.1875 -59.109375 -24.625q-17.15625 -15.359375 -13.375 -27.828125l59.234375 0l0 -25.40625l-143.125 0zm38.015625 -34.89061l0 25.406235l71.78125 0l0 -25.406235l-71.78125 0zm130.21875 -2.875l0 141.04686l28.53125 0l0 -44.015625l39.328125 0l0 -25.671875l-39.328125 0l0 -56.484375l0.640625 -1.765625q2.296875 -5.046875 0.609375 -8.468735q-2.328125 -4.640625 -11.21875 -4.640625l-18.5625 0zm-147.65625 149.99998l0 25.40625l148.4375 0l0 69.015625l27.75 0l0 -94.421875l-176.1875 0z" fill-rule="nonzero"/></g></svg>