<svg version="1.1" viewBox="0.0 0.0 755.9055118110236 755.9055118110236" fill="none" stroke="none" stroke-linecap="square" stroke-miterlimit="10" xmlns:xlink="http://www.w3.org/1999/xlink" xmlns="http://www.w3.org/2000/svg"><clipPath id="g11aaaa25996_0_0.0"><path d="m0 0l755.9055 0l0 755.9055l-755.9055 0l0 -755.9055z" clip-rule="nonzero"/></clipPath><g clip-path="url(#g11aaaa25996_0_0.0)"><path fill="#0b3454" d="m0 0l755.9055 0l0 755.9055l-755.9055 0z" fill-rule="evenodd"/><path fill="#000000" fill-opacity="0.0" d="m0 303.62192l755.9055 0l0 148.66144l-755.9055 0z" fill-rule="evenodd"/><path fill="#ffffff" d="m145.44286 415.0219l0 0l0 -48.953125q0 -3.515625 1.75 -6.453125q1.765625 -2.9375 4.703125 -4.6875q2.9375 -1.765625 6.453125 -1.765625l34.765625 0l0 8.75l-34.765625 0q-1.703125 0 -2.9375 1.234375q-1.21875 1.21875 -1.21875 2.921875l0 48.953125l-8.75 0zm67.40491 0q-3.515625 0 -6.453125 -1.75q-2.9375 -1.765625 -4.703125 -4.703125q-1.75 -2.9375 -1.75 -6.453125l0 -36.046875q0 -3.515625 1.75 -6.453125q1.765625 -2.9375 4.703125 -4.6875q2.9375 -1.765625 6.453125 -1.765625l37.125 0q3.625 0 6.5468903 1.765625q2.9375 1.75 4.6875 4.6875q1.765625 2.9375 1.765625 6.453125l0 22.390625l-54.281265 0l0 13.65625q0 1.703125 1.21875 2.9375q1.234375 1.21875 2.9375 1.21875l50.125015 0l0 8.75l-50.125015 0l0 0zm-4.15625 -35.296875l45.4375 0l0 -13.65625q0 -1.703125 -1.234375 -2.921875q-1.21875 -1.234375 -2.921875 -1.234375l-37.125 0q-1.703125 0 -2.9375 1.234375q-1.21875 1.21875 -1.21875 2.921875l0 13.65625zm77.64992 35.296875q-3.53125 0 -6.46875 -1.75q-2.921875 -1.765625 -4.6875 -4.703125q-1.75 -2.9375 -1.75 -6.453125l0 -0.859375l8.734375 0l0 0.859375q0 1.703125 1.21875 2.9375q1.234375 1.21875 2.953125 1.21875l37.109375 0q1.703125 0 2.921875 -1.21875q1.234375 -1.234375 1.234375 -2.9375l0 -9.484375q0 -1.71875 -1.234375 -2.9375q-1.21875 -1.234375 -2.921875 -1.234375l-37.109375 0q-3.53125 0 -6.46875 -1.75q-2.921875 -1.765625 -4.6875 -4.6875q-1.75 -2.9375 -1.75 -6.46875l0 -9.484375q0 -3.515625 1.75 -6.453125q1.765625 -2.9375 4.6875 -4.6875q2.9375 -1.765625 6.46875 -1.765625l37.109375 0q3.625 0 6.5625 1.765625q2.9375 1.75 4.6875 4.6875q1.765625 2.9375 1.765625 6.453125l0 0.84375l-8.859375 0l0 -0.84375q0 -1.703125 -1.234375 -2.921875q-1.21875 -1.234375 -2.921875 -1.234375l-37.109375 0q-1.71875 0 -2.953125 1.234375q-1.21875 1.21875 -1.21875 2.921875l0 9.484375q0 1.71875 1.21875 2.953125q1.234375 1.21875 2.953125 1.21875l37.109375 0q3.625 0 6.5625 1.765625q2.9375 1.75 4.6875 4.6875q1.765625 2.921875 1.765625 6.453125l0 9.484375q0 3.515625 -1.765625 6.453125q-1.75 2.9375 -4.6875 4.703125q-2.9375 1.75 -6.5625 1.75l-37.109375 0l0 0zm73.47873 0q-3.515625 0 -6.453125 -1.75q-2.9375 -1.765625 -4.703125 -4.703125q-1.75 -2.9375 -1.75 -6.453125l0 -36.046875q0 -3.515625 1.75 -6.453125q1.765625 -2.9375 4.703125 -4.6875q2.9375 -1.765625 6.453125 -1.765625l37.125 0q3.625 0 6.546875 1.765625q2.9375 1.75 4.6875 4.6875q1.765625 2.9375 1.765625 6.453125l0 36.046875q0 3.515625 -1.765625 6.453125q-1.75 2.9375 -4.6875 4.703125q-2.921875 1.75 -6.546875 1.75l-37.125 0l0 0zm0 -8.75l37.125 0q1.703125 0 2.921875 -1.21875q1.234375 -1.234375 1.234375 -2.9375l0 -36.046875q0 -1.703125 -1.234375 -2.921875q-1.21875 -1.234375 -2.921875 -1.234375l-37.125 0q-1.703125 0 -2.9375 1.234375q-1.21875 1.21875 -1.21875 2.921875l0 36.046875q0 1.703125 1.21875 2.9375q1.234375 1.21875 2.9375 1.21875zm59.62802 8.75l0 0l0 -61.859375l50.125 0q3.515625 0 6.453125 1.765625q2.9375 1.75 4.6875 4.6875q1.765625 2.9375 1.765625 6.453125l0 48.953125l-8.75 0l0 -48.953125q0 -1.703125 -1.234375 -2.921875q-1.21875 -1.234375 -2.921875 -1.234375l-37.125 0q-1.703125 0 -2.984375 1.234375q-1.28125 1.21875 -1.28125 2.921875l0 48.953125l-8.734375 0zm86.92029 0q-3.515625 0 -6.453125 -1.75q-2.9375 -1.765625 -4.703125 -4.703125q-1.75 -2.9375 -1.75 -6.453125l0 -22.390625l54.1875 0l0 -13.65625q0 -1.703125 -1.234375 -2.921875q-1.21875 -1.234375 -2.9375 -1.234375l-50.015625 0l0 -8.75l50.015625 0q3.625 0 6.5625 1.765625q2.9375 1.75 4.6875 4.6875q1.765625 2.9375 1.765625 6.453125l0 48.953125l-50.125 0zm0 -8.75l41.28125 0l0 -17.8125l-45.4375 0l0 13.65625q0 1.703125 1.21875 2.9375q1.234375 1.21875 2.9375 1.21875zm60.579895 8.75l0 0l0 -48.953125q0 -3.515625 1.75 -6.453125q1.765625 -2.9375 4.703125 -4.6875q2.9375 -1.765625 6.453125 -1.765625l34.765625 0l0 8.75l-34.765625 0q-1.703125 0 -2.9375 1.234375q-1.21875 1.21875 -1.21875 2.921875l0 48.953125l-8.75 0z" fill-rule="nonzero"/></g></svg>